<svg width="78" height="59" viewBox="0 0 78 59" fill="none" xmlns="http://www.w3.org/2000/svg">
<path d="M78 0H0V59H78V0Z" fill="black"/>
<path d="M33.646 19.8129C33.9169 19.5421 34.2843 19.39 34.6674 19.3901C35.0504 19.3902 35.4177 19.5425 35.6885 19.8134C35.9593 20.0843 36.1114 20.4517 36.1113 20.8348C36.1112 21.2178 35.9589 21.5851 35.688 21.8559L29.488 28.0559H51.998C52.3811 28.0559 52.7485 28.2081 53.0194 28.479C53.2903 28.7499 53.4425 29.1173 53.4425 29.5004C53.4425 29.8835 53.2903 30.2509 53.0194 30.5218C52.7485 30.7927 52.3811 30.9449 51.998 30.9449H29.488L35.688 37.1449C35.9592 37.4157 36.1117 37.7831 36.112 38.1663C36.1123 38.5496 35.9603 38.9172 35.6895 39.1884C35.4187 39.4596 35.0513 39.6121 34.6681 39.6124C34.2848 39.6127 33.9172 39.4607 33.646 39.1899L24.98 30.5209C24.7092 30.2501 24.5571 29.8828 24.5571 29.4999C24.5571 29.117 24.7092 28.7497 24.98 28.4789L33.646 19.8129Z" fill="white"/>
</svg>
