<svg width="35" height="32" viewBox="0 0 35 32" fill="none" xmlns="http://www.w3.org/2000/svg">
<path d="M17.4987 24.6252C17.3852 24.6252 17.2729 24.6028 17.1681 24.5594C17.0632 24.516 16.968 24.4523 16.8878 24.3721C16.8075 24.2919 16.7439 24.1966 16.7005 24.0918C16.657 23.987 16.6347 23.8746 16.6347 23.7612V7.79418C16.6347 7.56503 16.7257 7.34527 16.8878 7.18324C17.0498 7.0212 17.2696 6.93018 17.4987 6.93018C17.7279 6.93018 17.9476 7.0212 18.1096 7.18324C18.2717 7.34527 18.3627 7.56503 18.3627 7.79418V23.7612C18.3627 23.8746 18.3404 23.987 18.2969 24.0918C18.2535 24.1966 18.1899 24.2919 18.1096 24.3721C18.0294 24.4523 17.9342 24.516 17.8293 24.5594C17.7245 24.6028 17.6122 24.6252 17.4987 24.6252Z" fill="#050505"/>
<path d="M25.4828 16.6411H9.51579C9.28665 16.6411 9.06689 16.5501 8.90485 16.388C8.74282 16.226 8.65179 16.0062 8.65179 15.7771C8.65179 15.5479 8.74282 15.3282 8.90485 15.1662C9.06689 15.0041 9.28665 14.9131 9.51579 14.9131H25.4828C25.7119 14.9131 25.9317 15.0041 26.0937 15.1662C26.2558 15.3282 26.3468 15.5479 26.3468 15.7771C26.3468 16.0062 26.2558 16.226 26.0937 16.388C25.9317 16.5501 25.7119 16.6411 25.4828 16.6411Z" fill="#050505"/>
<path d="M33.7438 30.554L1.25584 30.554L1.25584 0.999954L33.7438 0.999954L33.7438 30.554Z" stroke="black" stroke-width="2"/>
</svg>
