<svg width="32" height="28" viewBox="0 0 32 28" fill="none" xmlns="http://www.w3.org/2000/svg">
<g clip-path="url(#clip0_1_67)">
<path d="M31.1134 8.23208C31.0413 6.74433 30.7766 5.72152 30.3975 4.83523C30.0063 3.89447 29.4046 3.0522 28.6162 2.35202C27.8459 1.64095 26.9132 1.08841 25.8903 0.738425C24.9096 0.393784 23.7903 0.153198 22.1536 0.0876025C20.5047 0.0164522 19.9812 0 15.7991 0C11.617 0 11.0935 0.0164522 9.45074 0.0820473C7.81405 0.147642 6.68884 0.388443 5.71407 0.73287C4.67888 1.08841 3.7523 1.63539 2.98202 2.35202C2.19976 3.0522 1.59214 3.90002 1.20688 4.82989C0.827738 5.72152 0.563066 6.73877 0.490904 8.22652C0.41263 9.72538 0.394531 10.2012 0.394531 14.0027C0.394531 17.8043 0.41263 18.2801 0.484792 19.7734C0.556954 21.2611 0.821862 22.284 1.20101 23.1702C1.59214 24.111 2.19976 24.9533 2.98202 25.6534C3.7523 26.3645 4.685 26.9171 5.70796 27.267C6.68884 27.6117 7.80794 27.8523 9.44487 27.9179C11.0874 27.9837 11.6111 27.9999 15.7932 27.9999C19.9753 27.9999 20.4988 27.9837 22.1416 27.9179C23.7783 27.8523 24.9035 27.6117 25.8783 27.267C27.9484 26.5395 29.5851 25.0518 30.3855 23.1702C30.7644 22.2786 31.0293 21.2611 31.1015 19.7734C31.1736 18.2801 31.1917 17.8043 31.1917 14.0027C31.1917 10.2012 31.1856 9.72538 31.1134 8.23208ZM28.3396 19.664C28.2733 21.0315 28.0206 21.7699 27.81 22.2622C27.2924 23.482 26.2273 24.4501 24.8854 24.9206C24.3438 25.112 23.5256 25.3417 22.0271 25.4018C20.4024 25.4676 19.9152 25.4838 15.8052 25.4838C11.6953 25.4838 11.2019 25.4676 9.58308 25.4018C8.07872 25.3417 7.26637 25.112 6.72481 24.9206C6.05701 24.6962 5.44916 24.3407 4.95578 23.8758C4.4443 23.4217 4.05317 22.8747 3.80636 22.2677C3.59575 21.7754 3.34306 21.0315 3.27701 19.6696C3.20462 18.1927 3.18675 17.7496 3.18675 14.0136C3.18675 10.2777 3.20462 9.82922 3.27701 8.35793C3.34306 6.99047 3.59575 6.25205 3.80636 5.75976C4.05317 5.15253 4.4443 4.6002 4.96189 4.15151C5.46115 3.68657 6.06289 3.33103 6.73092 3.1069C7.27248 2.91546 8.09095 2.68577 9.58919 2.62551C11.2139 2.55992 11.7014 2.54347 15.8111 2.54347C19.9272 2.54347 20.4144 2.55992 22.0333 2.62551C23.5376 2.68577 24.35 2.91546 24.8915 3.1069C25.5593 3.33103 26.1672 3.68657 26.6606 4.15151C27.172 4.60554 27.5632 5.15253 27.81 5.75976C28.0206 6.25205 28.2733 6.99581 28.3396 8.35793C28.4117 9.83478 28.4298 10.2777 28.4298 14.0136C28.4298 17.7496 28.4117 18.1871 28.3396 19.664Z" fill="white"/>
<path d="M15.7996 6.80957C11.4311 6.80957 7.88672 10.0312 7.88672 14.0024C7.88672 17.9736 11.4311 21.1952 15.7996 21.1952C20.1684 21.1952 23.7125 17.9736 23.7125 14.0024C23.7125 10.0312 20.1684 6.80957 15.7996 6.80957ZM15.7996 18.6682C12.9656 18.6682 10.6667 16.5788 10.6667 14.0024C10.6667 11.426 12.9656 9.33658 15.7996 9.33658C18.6339 9.33658 20.9325 11.426 20.9325 14.0024C20.9325 16.5788 18.6339 18.6682 15.7996 18.6682Z" fill="white"/>
<path d="M25.8726 6.52587C25.8726 7.45318 25.0454 8.20506 24.025 8.20506C23.0049 8.20506 22.1777 7.45318 22.1777 6.52587C22.1777 5.59835 23.0049 4.84668 24.025 4.84668C25.0454 4.84668 25.8726 5.59835 25.8726 6.52587Z" fill="white"/>
</g>
<defs>
<clipPath id="clip0_1_67">
<rect width="30.8032" height="28" fill="white" transform="translate(0.34082)"/>
</clipPath>
</defs>
</svg>
