<svg width="42" height="30" viewBox="0 0 42 30" fill="none" xmlns="http://www.w3.org/2000/svg">
<path d="M0.435059 1.47801C0.435324 1.86983 0.591158 2.24551 0.868308 2.52247C1.14546 2.79943 1.52124 2.95501 1.91306 2.95501H40.3351C40.5323 2.96014 40.7286 2.92572 40.9124 2.85378C41.0961 2.78184 41.2636 2.67383 41.4049 2.53612C41.5463 2.39841 41.6586 2.2338 41.7353 2.05199C41.812 1.87017 41.8515 1.67484 41.8515 1.47751C41.8515 1.28018 41.812 1.08485 41.7353 0.903038C41.6586 0.721224 41.5463 0.55661 41.4049 0.418904C41.2636 0.281198 41.0961 0.173188 40.9124 0.101244C40.7286 0.0293 40.5323 -0.00512061 40.3351 1.17528e-05H1.91306C1.52107 1.17528e-05 1.14513 0.155729 0.867955 0.432908C0.590776 0.710087 0.435059 1.08602 0.435059 1.47801ZM7.82406 13.3H40.3351C40.5323 13.2949 40.7286 13.3293 40.9124 13.4012C41.0961 13.4732 41.2636 13.5812 41.4049 13.7189C41.5463 13.8566 41.6586 14.0212 41.7353 14.203C41.812 14.3849 41.8515 14.5802 41.8515 14.7775C41.8515 14.9748 41.812 15.1702 41.7353 15.352C41.6586 15.5338 41.5463 15.6984 41.4049 15.8361C41.2636 15.9738 41.0961 16.0818 40.9124 16.1538C40.7286 16.2257 40.5323 16.2601 40.3351 16.255H7.82406C7.6268 16.2601 7.4305 16.2257 7.24676 16.1538C7.06301 16.0818 6.89553 15.9738 6.75419 15.8361C6.61286 15.6984 6.50053 15.5338 6.42383 15.352C6.34713 15.1702 6.30762 14.9748 6.30762 14.7775C6.30762 14.5802 6.34713 14.3849 6.42383 14.203C6.50053 14.0212 6.61286 13.8566 6.75419 13.7189C6.89553 13.5812 7.06301 13.4732 7.24676 13.4012C7.4305 13.3293 7.6268 13.2949 7.82406 13.3ZM21.1241 26.6H40.3351C40.5323 26.5949 40.7286 26.6293 40.9124 26.7012C41.0961 26.7732 41.2636 26.8812 41.4049 27.0189C41.5463 27.1566 41.6586 27.3212 41.7353 27.503C41.812 27.6848 41.8515 27.8802 41.8515 28.0775C41.8515 28.2748 41.812 28.4702 41.7353 28.652C41.6586 28.8338 41.5463 28.9984 41.4049 29.1361C41.2636 29.2738 41.0961 29.3818 40.9124 29.4538C40.7286 29.5257 40.5323 29.5601 40.3351 29.555H21.1231C20.9258 29.5601 20.7295 29.5257 20.5458 29.4538C20.362 29.3818 20.1945 29.2738 20.0532 29.1361C19.9119 28.9984 19.7995 28.8338 19.7228 28.652C19.6461 28.4702 19.6066 28.2748 19.6066 28.0775C19.6066 27.8802 19.6461 27.6848 19.7228 27.503C19.7995 27.3212 19.9119 27.1566 20.0532 27.0189C20.1945 26.8812 20.362 26.7732 20.5458 26.7012C20.7295 26.6293 20.9268 26.5949 21.1241 26.6Z" fill="black"/>
</svg>
