<svg width="36" height="33" viewBox="0 0 36 33" fill="none" xmlns="http://www.w3.org/2000/svg">
<path d="M35.263 9.33696C35.0037 9.1609 34.6853 9.09487 34.3774 9.15336C34.0696 9.21185 33.7975 9.39009 33.621 9.64896L31.208 13.187C30.4711 9.78479 28.6221 6.72493 25.9529 4.49038C23.2837 2.25583 19.9464 0.973875 16.4676 0.846863C12.9889 0.719851 9.56694 1.75502 6.74191 3.78897C3.91688 5.82292 1.8497 8.7398 0.866675 12.0792C-0.116353 15.4185 0.0407673 18.9902 1.31323 22.2304C2.5857 25.4705 4.90103 28.1946 7.89375 29.9726C10.8865 31.7506 14.3861 32.4813 17.8403 32.0493C21.2944 31.6173 24.5063 30.0473 26.969 27.587C27.1893 27.3648 27.3126 27.0644 27.312 26.7515C27.3113 26.4386 27.1867 26.1387 26.9655 25.9175C26.7442 25.6962 26.4443 25.5716 26.1314 25.571C25.8185 25.5703 25.5181 25.6936 25.296 25.914C23.1918 28.0183 20.4431 29.3567 17.4889 29.7152C14.5347 30.0738 11.5456 29.4319 8.99914 27.892C6.45267 26.3522 4.49578 24.0032 3.44114 21.2205C2.3865 18.4378 2.29497 15.382 3.18116 12.5411C4.06736 9.70029 5.88014 7.23845 8.32989 5.54894C10.7796 3.85943 13.725 3.03975 16.6953 3.22086C19.6656 3.40197 22.4895 4.57342 24.7159 6.54804C26.9422 8.52266 28.4425 11.1865 28.977 14.114L24.777 11.25C24.6488 11.1582 24.5036 11.0929 24.3499 11.058C24.1961 11.0231 24.037 11.0193 23.8818 11.0468C23.7265 11.0743 23.5784 11.1325 23.446 11.218C23.3136 11.3036 23.1996 11.4148 23.1108 11.545C23.0219 11.6752 22.96 11.8219 22.9287 11.9764C22.8973 12.1308 22.8971 12.29 22.9282 12.4446C22.9592 12.5992 23.0208 12.7459 23.1094 12.8763C23.198 13.0068 23.3117 13.1181 23.444 13.204L29.708 17.476C29.8043 17.5415 29.9097 17.5924 30.021 17.627H30.031C30.049 17.633 30.068 17.635 30.087 17.64C30.3213 17.7015 30.5691 17.6885 30.7958 17.6029C31.0224 17.5172 31.2168 17.3631 31.352 17.162L35.573 10.973C35.7473 10.7145 35.8126 10.3976 35.7545 10.0912C35.6965 9.78482 35.5198 9.51376 35.263 9.33696Z" fill="black"/>
</svg>
