<svg width="31" height="27" viewBox="0 0 31 27" fill="none" xmlns="http://www.w3.org/2000/svg">
<path d="M12.5974 13.9395C12.3904 13.916 12.1795 13.9038 11.9655 13.9038C9.17174 13.9038 6.77889 15.9929 6.8234 18.7086L12.5974 13.9395ZM12.5974 13.9395V11.5683V11.0643C12.3833 11.05 12.1677 11.0426 11.951 11.0426C9.45981 11.0426 7.15051 11.9831 5.5088 13.6547L5.50876 13.6548C4.2731 14.9127 3.54298 16.5056 3.43045 18.1612L12.5974 13.9395ZM17.1141 0.770508H20.5033C20.5301 1.00164 20.5684 1.22994 20.6178 1.455C21.0278 3.32761 22.1845 4.93279 23.7674 6.01755C24.963 6.83726 26.4065 7.3641 27.9705 7.49082V7.95545V10.3804C26.6677 10.3058 25.4032 10.0351 24.2007 9.57398C23.2797 9.2205 22.424 8.76607 21.6429 8.21835L20.4587 7.38791L20.4623 8.83432L20.4873 18.6696C20.4771 20.6591 19.6135 22.5424 18.0164 23.9772L18.0163 23.9773C16.7136 25.1479 15.0558 25.8987 13.2473 26.1422C12.8221 26.1995 12.3891 26.2288 11.951 26.2288C10.0102 26.2288 8.17935 25.6575 6.68934 24.6152C6.4089 24.4189 6.14088 24.2063 5.88568 23.9772L17.1141 0.770508ZM17.1141 0.770508V12.0482V12.0488L17.1083 18.6363L17.1141 0.770508ZM13.5631 23.1346L13.5631 23.1346C12.9753 23.3111 12.3416 23.3943 11.6833 23.3615L11.6833 23.3615C10.8411 23.3195 10.0488 23.0883 9.35753 22.7124C7.89136 21.9153 6.85165 20.4409 6.8234 18.7087L13.5631 23.1346ZM13.5631 23.1346C15.5784 22.5294 17.108 20.7792 17.1083 18.6369L13.5631 23.1346ZM27.9705 6.7815C27.9703 6.77349 27.9703 6.76551 27.9705 6.75757V6.76945V6.7815ZM5.88543 23.977C4.15486 22.4221 3.28288 20.3393 3.43044 18.1614L5.88543 23.977Z" stroke="white" stroke-width="1.5"/>
</svg>
