<svg width="32" height="28" viewBox="0 0 32 28" fill="none" xmlns="http://www.w3.org/2000/svg">
<g clip-path="url(#clip0_1_71)">
<path d="M31.144 5.30469C29.9905 5.76932 28.7269 6.0451 27.4741 6.17969C28.7934 5.4617 29.7699 4.33804 30.2415 3.00781C29.0009 3.67688 27.6947 4.17612 26.2795 4.42969C25.0565 3.2475 23.4133 2.625 21.7586 2.625C20.1343 2.625 18.5822 3.12296 17.3379 4.1868C16.0538 5.28439 15.3238 6.80283 15.3213 8.36719C15.3206 8.80255 15.3986 9.24133 15.5095 9.67563C10.4281 9.44406 5.71572 7.25293 2.50667 3.66406C1.92502 4.57431 1.60353 5.57962 1.60423 6.5625C1.60564 8.41376 2.61783 10.2191 4.43186 11.3203C3.42602 11.2932 2.423 11.1095 1.54407 10.6641V10.7687C1.54501 13.5033 3.70897 15.7553 6.65787 16.2969C6.13686 16.4261 5.46121 16.5175 4.91857 16.5175C4.91669 16.5175 4.91481 16.5175 4.91316 16.5175C4.48897 16.5169 4.06478 16.4789 3.64975 16.4062C4.47769 18.7465 7.02237 20.4617 9.72616 20.5078C7.4884 22.1066 4.01073 22.8594 1.84535 22.8594C1.34243 22.8585 0.83998 22.8589 0.34082 22.8047C3.22415 24.4865 6.5782 25.375 10.0037 25.375H10.0277V25.3795C21.5781 25.3795 28.0155 16.6231 28.0155 9.03156C28.0155 8.7829 27.9739 8.50412 27.9554 8.25781C29.1922 7.44455 30.2954 6.45825 31.144 5.30469ZM24.5776 14.0162C23.8688 15.7239 22.8503 17.2672 21.5504 18.6031C20.1721 20.0197 18.5395 21.1318 16.6984 21.9083C14.804 22.7073 12.7119 23.1367 10.474 23.1869L10.0234 23.1875H10.0037C9.87351 23.1875 9.74355 23.186 9.61382 23.183C10.18 22.8989 10.7188 22.5808 11.2131 22.2277C12.4553 21.1788 13.0097 19.8501 13.2156 18.3795C13.2156 18.3795 12.2029 18.4914 11.0497 18.4844C10.1562 18.4788 9.17858 18.4122 8.5215 18.1022C10.1567 17.434 11.0161 16.3261 11.3658 14.9297C9.96681 15.0391 6.71804 14.3828 5.55262 13.539C6.83836 13.125 8.04161 12.25 8.52291 11.5391C8.52291 11.5391 6.23674 10.5547 4.62293 8.44431C7.75748 10.4774 11.4904 11.6828 15.3892 11.8604L18.57 11.9766L17.912 9.40967L17.7891 8.9006C17.7477 8.69424 17.7275 8.51929 17.7278 8.37039C17.7292 7.40695 18.1881 6.46274 18.9865 5.78021C19.7376 5.13806 20.6703 4.8125 21.7586 4.8125C22.5626 4.8125 23.3565 5.06244 24.0154 5.51233C25.0676 6.34375 25.609 7.4375 25.609 9.03156C25.609 10.6673 25.2523 12.391 24.5776 14.0162Z" fill="white"/>
</g>
<defs>
<clipPath id="clip0_1_71">
<rect width="30.8032" height="28" fill="white" transform="translate(0.34082)"/>
</clipPath>
</defs>
</svg>
