<svg width="29" height="26" viewBox="0 0 29 26" fill="none" xmlns="http://www.w3.org/2000/svg">
<path d="M1.47852 25.4434V9.51367H6.88694V25.4434H1.47852Z" stroke="white"/>
<path d="M7.32474 4.30617V4.3062C7.32474 5.81113 5.96145 7.11571 4.18434 7.11571C2.40524 7.11571 1.04102 5.81084 1.04102 4.3062C1.04102 2.80253 2.40504 1.49805 4.18434 1.49805C5.96168 1.49805 7.32482 2.80219 7.32474 4.30617Z" stroke="white"/>
<path d="M15.6355 10.4634V11.6622L16.4873 10.8187C17.3912 9.92361 18.9053 9.1123 20.9866 9.1123C23.9748 9.1123 25.5565 10.0844 26.4277 11.4272C27.3298 12.8175 27.5438 14.7089 27.5438 16.6957V25.4428H22.1454V17.7005C22.1454 16.6217 22.1084 15.5395 21.7283 14.7285C21.5293 14.3039 21.2321 13.9409 20.7974 13.6903C20.3685 13.443 19.8435 13.3268 19.2218 13.3268C18.1101 13.3268 17.2104 13.612 16.6197 14.3822C16.0563 15.1168 15.8571 16.1934 15.8571 17.5622V25.4427H10.4608V9.51303H15.6355V10.4634Z" stroke="white"/>
</svg>
